<?xml version="1.0" encoding="UTF-8"?>
<svg width="210mm" height="297mm" version="1.1" viewBox="0 0 210 297" xml:space="preserve" xmlns="http://www.w3.org/2000/svg"><path d="m203.1 72.504v53.198q0 3.0874-2.4269 5.3435-2.4269 2.2562-5.7479 2.2562h-57.224q-5.3647 0-7.5362-4.7498-2.1714-4.631 1.7882-8.1934l17.627-16.387q-18.904-16.268-44.578-16.268-13.284 0-25.355 4.8092-12.071 4.8091-20.884 13.003-8.8135 8.1934-13.987 19.415-5.1731 11.221-5.1731 23.571 0 12.349 5.1731 23.571 5.1731 11.221 13.987 19.415 8.8135 8.1934 20.884 13.003 12.071 4.8091 25.355 4.8091 21.587 0 38.83-11.815 17.244-11.815 23.63-31.052 0.89412-2.7311 3.832-2.7311h25.419q2.0437 0 3.1933 1.4249 1.2773 1.5437 0.89412 3.2061-4.9815 20.78-18.84 37.048-13.859 16.268-33.977 25.293-20.118 9.0246-42.982 9.0246-19.926 0-38.064-7.2434-18.138-7.2434-31.294-19.474-13.156-12.231-20.948-29.092-7.7916-16.862-7.7916-35.386 0-18.524 7.7916-35.386 7.7916-16.862 20.948-29.092t31.294-19.474q18.138-7.2434 38.064-7.2434 18.777 0 36.34 6.5903 17.563 6.5903 31.23 18.584l16.605-15.318q3.7042-3.6811 8.9412-1.6624 4.9815 2.0187 4.9815 7.0059z" fill="currentColor" stroke-width=".26458"/></svg>
